# Blender 4.5.3 LTS
# www.blender.org
o Cube
v -0.400000 -1.200000 0.400000
v -0.400000 1.200000 0.400000
v -0.400000 -1.200000 -0.400000
v -0.400000 1.200000 -0.400000
v 0.400000 -1.200000 0.400000
v 0.400000 1.200000 0.400000
v 0.400000 -1.200000 -0.400000
v 0.400000 1.200000 -0.400000
v -0.600000 -0.600000 -0.600000
v -0.600000 -0.600000 0.600000
v -0.600000 0.600000 0.600000
v -0.600000 0.600000 -0.600000
v 0.600000 -0.600000 -0.600000
v 0.600000 0.600000 -0.600000
v 0.600000 -0.600000 0.600000
v 0.600000 0.600000 0.600000
vn -1.0000 -0.0000 -0.0000
vn -0.0000 -0.0000 -1.0000
vn 1.0000 -0.0000 -0.0000
vn -0.0000 -0.0000 1.0000
vn -0.0000 -1.0000 -0.0000
vn -0.0000 1.0000 -0.0000
vn -0.9487 -0.3162 -0.0000
vn -0.9487 0.3162 -0.0000
vn -0.0000 -0.3162 -0.9487
vn -0.0000 0.3162 -0.9487
vn 0.9487 -0.3162 -0.0000
vn 0.9487 0.3162 -0.0000
vn -0.0000 -0.3162 0.9487
vn -0.0000 0.3162 0.9487
vt 0.750000 0.250000
vt 0.750000 0.750000
vt 0.250000 0.750000
vt 0.250000 0.250000
vt 0.750000 0.250000
vt 0.250000 0.250000
vt 0.750000 0.750000
vt 0.250000 0.750000
vt 0.333333 0.000000
vt 0.416667 0.000000
vt 0.583333 1.000000
vt 0.666667 1.000000
vt 0.666667 1.000000
vt 0.333333 0.000000
vt 0.666667 0.000000
vt 0.666667 1.000000
vt 0.333333 1.000000
vt 0.666667 0.000000
vt 0.666667 1.000000
vt 0.333333 1.000000
s 0
f 10/1/1 11/2/1 12/3/1 9/4/1
f 9/5/2 12/2/2 14/3/2 13/6/2
f 13/1/3 14/2/3 16/3/3 15/4/3
f 15/5/4 16/7/4 11/8/4 10/6/4
f 3/9/5 7/10/5 5/10/5 1/9/5
f 8/11/6 4/12/6 2/13/6 6/11/6
f 3/14/7 1/15/7 10/1/7 9/4/7
f 2/16/8 4/17/8 12/3/8 11/2/8
f 7/9/9 3/18/9 9/5/9 13/6/9
f 4/19/10 8/20/10 14/3/10 12/2/10
f 5/14/11 7/15/11 13/1/11 15/4/11
f 8/16/12 6/17/12 16/3/12 14/2/12
f 1/14/13 5/15/13 15/5/13 10/6/13
f 6/16/14 2/17/14 11/8/14 16/7/14
