# Blender 5.0.1
# www.blender.org
mtllib grass2.mtl
o Plane
v -0.222126 0.000000 -0.000000
v 0.222126 0.000000 -0.000000
v 0.000000 2.000000 0.000000
v -0.183956 0.500000 -0.000000
v -0.120570 1.224424 0.000000
v 0.120570 1.224424 0.000000
v 0.183956 0.500000 -0.000000
vn -0.0000 -0.0000 1.0000
vt 0.000000 0.612212
vt 0.775576 0.612212
vt 0.000000 1.000000
vt 0.000000 0.250000
vt 1.000000 0.250000
vt 0.000000 0.000000
vt 1.000000 0.000000
s 0
f 5/1/1 6/2/1 3/3/1
f 4/4/1 7/5/1 6/2/1 5/1/1
f 1/6/1 2/7/1 7/5/1 4/4/1
o Plane.001
v -0.000000 0.000000 0.222126
v -0.000000 0.000000 -0.222126
v 0.000000 2.000000 -0.000000
v -0.000000 0.500000 0.183956
v 0.000000 1.224424 0.120570
v 0.000000 1.224424 -0.120570
v -0.000000 0.500000 -0.183956
vn 1.0000 -0.0000 -0.0000
vt 0.000000 0.612212
vt 0.775576 0.612212
vt 0.000000 1.000000
vt 0.000000 0.250000
vt 1.000000 0.250000
vt 0.000000 0.000000
vt 1.000000 0.000000
s 0
f 12/8/2 13/9/2 10/10/2
f 11/11/2 14/12/2 13/9/2 12/8/2
f 8/13/2 9/14/2 14/12/2 11/11/2
